<svg xmlns="http://www.w3.org/2000/svg" fill="none" viewBox="0 0 1632 700" height="700" width="1632">
<g clip-path="url(#clip0_12325_9840)">
<rect fill="#FFFFC4" height="700" width="1632"></rect>
<g clip-path="url(#clip1_12325_9840)">
<path fill="#4A87F2" d="M622.439 -1.4407C646.849 29.3344 664.192 65.7064 691.853 93.5981C697.277 99.0674 703.325 104.324 710.711 106.506C732.473 112.939 753.017 88.1501 751.976 65.4797C750.935 42.8092 736.304 23.3976 723.026 4.99203C707.34 -16.7433 692.717 -39.2437 679.226 -62.4101C675.218 -69.2892 671.217 -76.5508 670.813 -84.4996C669.999 -100.751 685.614 -114.503 701.816 -115.962C718.019 -117.421 733.733 -109.274 745.992 -98.5766C796.739 -54.2983 796.335 23.3551 822.395 85.4651C828.167 99.2161 839.434 114.533 854.1 111.869C866.464 109.623 872.703 95.8226 875.755 83.6231C892.1 18.3109 873.517 -54.6879 827.94 -104.223C801.235 -133.248 763.795 -159.078 760.884 -198.412C759.553 -216.449 766.309 -234.415 776.797 -249.144C811.603 -298.006 885.308 -308.555 938.732 -281.279C992.156 -254.004 1025.63 -196.747 1036.71 -137.782C1047.8 -78.8178 1039.24 -17.9264 1026.34 40.6697C1013.44 99.2657 996.185 157.125 989.663 216.77C988.141 230.719 996.879 251.512 1008.94 244.35C1048.59 217.669 1083.86 184.485 1112.92 146.527C1127.17 127.901 1140.2 107.88 1158.41 93.1164C1176.63 78.3522 1201.79 69.5391 1223.83 77.5304C1260.28 90.743 1268.11 140.221 1257.62 177.557C1245.33 221.261 1216.03 259.936 1177.3 283.591C1128.65 313.303 1061.77 324.483 1037.74 376.193C1033.65 385.006 1031.27 395.732 1036.06 404.191C1038.41 408.335 1042.22 411.445 1046.12 414.173C1094.87 448.249 1160.61 435.122 1219.41 426.223C1278.2 417.325 1349.78 419.67 1382.11 469.609C1407.42 508.716 1392.45 567.978 1351.61 590.365C1333.88 600.085 1313.28 603.166 1293.09 604.257C1222.6 608.055 1151.05 588.856 1091.93 550.273C1056.72 527.298 1019.92 496.105 978.517 503.346C972.2 536.473 1007.54 560.836 1037.02 577.195C1096.35 610.109 1152.24 649.195 1203.53 693.622C1227.49 714.379 1252.16 739.99 1252.48 771.7C1252.88 812.11 1209.97 842.921 1169.59 841.61C1129.22 840.299 1093.33 815.22 1065.2 786.216C1002.07 721.095 966.188 633.786 905.186 566.667C896.526 557.138 886.895 547.737 874.636 543.798C862.378 539.859 846.919 543.111 840.553 554.297C837.182 560.22 836.792 567.333 836.757 574.148C836.615 599.532 840.206 624.937 847.379 649.287C856.04 678.666 869.984 707.082 871.301 737.687C872.618 768.292 855.898 803.006 825.759 808.398C804.018 812.287 781.924 799.372 769.028 781.427C756.14 763.482 750.765 741.315 746.735 719.586C739.264 679.311 735.447 638.355 735.334 597.393C735.256 568.516 728.932 529.799 700.174 527.369C672.477 525.031 658.81 560.468 657.478 588.239C654.016 660.494 671.812 737.085 641.389 802.709C627.028 833.69 602.794 859.328 575.24 879.491C543.925 902.409 506.973 919.065 468.215 920.85C429.457 922.636 388.951 907.999 364.717 877.692C338.756 845.216 334.606 799.181 345.462 759.033C356.318 718.885 380.361 683.632 406.47 651.27C444.371 604.293 487.534 561.467 521.688 511.698C555.843 461.929 580.983 402.93 576.444 342.732C576.125 338.51 575.495 333.926 572.457 330.972C569.411 328.011 564.815 327.508 560.588 327.161C529.535 324.631 497.363 322.237 468.059 332.814C426.788 347.713 398.837 385.197 370.227 418.48C341.617 451.763 305.104 484.685 261.226 484.437C241.894 484.331 223.142 477.586 205.926 468.794C184.164 457.679 162.834 441.313 156.277 417.757C144.67 376.037 183.867 337.908 222.03 317.462C328.318 260.545 453.216 254.516 571.904 233.376C605.804 227.34 647.564 210.592 647.231 176.147C646.969 149.127 619.79 131.274 595.479 119.513C520.357 83.1768 440.746 56.1281 359.038 39.1748C341.638 35.5617 323.708 32.2462 308.56 22.9442C277.677 3.97897 266.254 -40.9511 283.392 -72.7322C303.752 -110.493 348.529 -112.498 385.622 -105.647C476.465 -88.8637 560.482 -79.5334 622.424 -1.44778L622.439 -1.4407Z"></path>
<path fill="#4A87F2" d="M1331.76 -97.5769C1333.13 -105.101 1336.49 -112.121 1340.3 -118.753C1346.32 -129.209 1354.19 -139.453 1365.45 -143.768C1376.81 -148.118 1389.75 -145.645 1400.88 -140.729C1431.07 -127.403 1451.49 -97.3289 1460.02 -65.4486C1468.55 -33.5612 1466.64 0.168213 1462.34 32.8987C1459.87 51.7081 1456.39 71.0559 1445.81 86.8048C1414.03 134.151 1360.66 100.046 1365.19 51.9985C1367.66 25.7291 1368.5 1.97476 1357.77 -22.984C1347.56 -46.7242 1326.69 -69.9331 1331.76 -97.584V-97.5769Z"></path>
<path fill="#4A87F2" d="M1400.78 723.936C1403.67 737.347 1417.71 745.084 1430.83 749.072C1459.11 757.673 1504.84 760.818 1529.08 739.99C1546.62 724.907 1550.35 695.435 1531.33 680.395C1501.24 656.584 1389.58 672.113 1400.78 723.936Z"></path>
<path fill="#4A87F2" d="M63.7435 728.767C48.3197 756.97 40.9761 789.127 39.3119 821.234C38.1788 843.09 39.7935 865.817 49.8494 885.25C59.9053 904.683 79.9533 920.134 101.821 919.482C117.713 919.008 132.527 910.216 143.1 898.342C153.673 886.468 160.478 871.725 165.938 856.791C183.055 809.97 188.231 759.769 193.273 710.17C196.701 676.455 164.968 655.896 132.202 662.612C103.691 668.449 76.6887 705.098 63.7435 728.767Z"></path>
<path fill="#4A87F2" d="M133.192 243.822C126.518 255.328 120.333 267.506 110.365 276.317C100.397 285.128 85.3677 289.804 73.5861 283.64C59.3215 276.175 56.1356 257.304 56.3343 241.198C56.6056 219.17 60.0184 197.184 66.4397 176.115C71.6204 159.114 78.9175 142.458 90.4736 128.963C102.03 115.469 118.287 105.369 135.984 103.92C146.409 103.067 156.853 105.183 166.908 108.066C192.519 115.404 214.982 142.721 194.579 167.602C173.433 193.388 150.278 214.342 133.185 243.82L133.192 243.822Z"></path>
<path fill="#2EC08B" d="M1068.15 757.045C1062.14 757.015 1055.67 755.935 1047.79 753.642C1033.43 749.469 1019.86 743.117 1007.46 734.766C1002.86 731.669 997.719 727.789 994.487 722.559C991.01 716.916 990.426 710.367 992.958 705.456C995.239 701.039 1000.2 697.755 1006.23 696.673C1008.92 696.191 1011.76 695.964 1014.89 695.98C1021.85 696.014 1029.09 697.276 1036.11 698.494C1041.65 699.457 1046.86 700.369 1052 700.741C1053.35 700.84 1054.8 700.89 1056.57 700.899C1057.91 700.905 1059.27 700.891 1060.62 700.869C1062.05 700.848 1063.43 700.834 1064.8 700.841C1069.19 700.863 1074.29 701.136 1078.96 702.973C1091.84 708.06 1100.17 720.507 1099.22 733.24C1098.36 744.791 1090.62 753.091 1078 756.01C1074.92 756.725 1071.6 757.077 1068.15 757.059L1068.15 757.045ZM722.426 750.206C721.93 750.204 721.442 750.194 720.953 750.171C715.183 749.937 710.911 748.838 707.501 746.717C704.966 745.139 702.902 742.911 701.565 741.374C691.024 729.228 686.037 712.462 688.227 696.526C688.631 693.574 689.551 689.448 692.831 687.736C693.967 687.139 696.23 686.435 700.571 686.456C704.246 686.475 709.165 687.116 711.891 688.511C717.041 691.144 720.937 698.028 724.376 704.103C725.493 706.071 726.546 707.932 727.551 709.481C733.194 718.139 738.629 727.425 737.616 737.395C737.169 741.793 735.417 745.376 732.672 747.495C730.277 749.339 726.923 750.229 722.433 750.207L722.426 750.206ZM840.273 737.369C811.281 737.224 781.644 718.671 764.755 690.099C749.643 664.534 743.116 631.416 744.787 588.86C744.828 587.755 744.876 586.643 744.924 585.531L744.924 585.446C745.469 572.71 746.038 559.543 740.99 547.871C736.285 536.994 725.447 529.062 715.221 529.011C712.658 528.998 710.17 529.474 707.828 530.426C699.313 533.883 694.589 542.383 690.016 550.606C689.116 552.224 688.194 553.877 687.273 555.446C682.909 562.856 674.616 571.5 665.615 571.455C664.022 571.447 662.451 571.17 660.931 570.624C654.979 568.49 650.57 562.213 649.153 553.824C647.694 545.216 649.197 536.411 650.649 527.888C651.532 522.706 652.37 517.808 652.658 512.751C653.471 498.643 647.108 482.409 633.721 480.103C632.674 479.921 631.619 479.83 630.585 479.825C616.734 479.756 606.9 494.904 601.093 507.62C599.904 510.221 598.723 512.843 597.541 515.466C587.366 538.058 576.868 561.363 558.746 578.219C545.67 590.382 527.965 597.591 511.387 597.508C500.687 597.455 490.958 594.275 483.248 588.307C470.472 578.424 463.166 560.931 463.702 541.515C464.868 499.261 499.255 465.469 525.021 443.727C528.904 440.452 532.907 437.142 536.776 433.945C563.591 411.777 591.324 388.847 604.521 356.848C610.951 341.259 611.005 321.854 604.663 308.56C600.507 299.868 594.14 294.197 585.725 291.704C582.741 290.817 579.62 290.384 576.172 290.367C568.162 290.327 559.809 292.637 551.731 294.871C543.902 297.035 535.804 299.276 528.283 299.239C522.823 299.211 518.113 298.005 513.89 295.554C508.185 292.238 504 286.465 502.109 279.307C499.726 270.248 501.108 260.046 505.808 252.021C512.886 239.928 525.812 230.938 545.326 224.56C562.052 219.089 579.522 216.356 597.254 216.445C605.299 216.485 613.376 217.12 621.266 218.336L622.9 218.592C626.467 219.155 630.153 219.733 633.73 219.751C637.306 219.769 640.588 219.162 643.313 217.9C651.249 214.206 654.814 205.177 655.501 197.954C657.101 181.101 647.127 163.155 628.816 149.957C619.812 143.465 610.148 138.642 599.919 133.533C592.798 129.976 585.445 126.312 578.561 122.105C551.457 105.555 526.978 73.8143 533.377 40.1944C536.279 24.9415 545.131 12.035 558.972 2.87274C571.577 -5.47384 587.378 -10.0213 603.467 -9.94109C614.004 -9.88855 624.248 -7.78293 633.095 -3.84937C654.717 5.75888 673.424 26.107 684.414 51.9639C687.466 59.1488 689.382 66.8239 691.236 74.2507C693.721 84.2169 696.068 93.6229 700.953 102.475C705.016 109.842 715.085 122.963 727.577 134.389C737.566 143.521 752.199 154.426 765.173 154.484C767.609 154.496 769.912 154.111 772.019 153.342C776.539 151.693 779.259 147.186 781.119 143.448C796.127 113.335 790.05 77.8323 783.071 50.2738C779.73 37.0727 772.256 26.3447 765.02 15.9722C755.261 1.97397 746.042 -11.2493 747.287 -29.3372C747.669 -34.8896 748.529 -41.2615 752.024 -46.3733C756.369 -52.7349 767.978 -60.2859 776.102 -63.3413C783.183 -66.0124 790.894 -67.3412 799.017 -67.3007C820.283 -67.1947 841.437 -57.4542 857.067 -40.5858C873.627 -22.7067 878.513 3.04189 882.428 30.0821C888.782 73.9604 886.824 118.548 884.403 152.493C883.962 158.647 883.277 179.55 892.819 190.303C896.072 193.974 900.177 195.95 905.013 196.18C905.268 196.195 905.523 196.197 905.771 196.198C913.072 196.234 920.09 191.863 926.881 187.646C932.934 183.886 939.192 179.992 944.985 180.021C947.534 180.034 949.945 180.811 952.154 182.331C960.454 188.047 958.222 198.195 954.167 211.898C950.774 223.337 947.273 235.165 955.305 242.126C957.737 244.235 961.109 245.577 965.906 246.359C968.829 246.834 971.83 247.083 974.818 247.098C995.511 247.201 1018.14 236.184 1042.08 214.348C1046.26 210.529 1050.44 206.533 1054.48 202.671C1070.97 186.89 1088.02 170.575 1109.47 162.598C1118.42 159.27 1128 157.604 1137.95 157.653C1161.99 157.773 1185.5 168.078 1200.81 185.207C1223.17 210.214 1228.23 248.595 1213.12 278.544C1198.4 307.723 1167.32 328.496 1118.09 342.066C1109.64 344.397 1100.93 346.536 1092.51 348.605C1063.1 355.833 1032.68 363.312 1007.26 380.174C990.387 391.375 972.749 412.166 978.583 433.902C981.718 445.572 991.666 455.852 1005.87 462.086C1024.57 470.298 1045.66 470.517 1066.06 470.725C1067.78 470.74 1069.51 470.763 1071.22 470.779C1092.24 471.054 1116.26 472.385 1135.16 484.863C1144.36 490.938 1151.72 500.475 1155.35 511.028C1159.24 522.326 1158.39 533.388 1152.96 542.174C1144.57 555.749 1127.79 561.305 1111.33 565.828C1092.72 570.942 1071.62 576.738 1050.86 576.635C1045.88 576.61 1041 576.245 1036.38 575.542C1011.54 571.784 989.38 557.993 966.977 542.983L965.227 541.812C944.462 527.886 922.991 513.483 898.487 508.175C893.011 506.985 887.356 506.369 881.684 506.341C859.129 506.228 839.538 515.319 829.278 530.656C814.973 552.03 820.509 580.892 830.451 600.778C837.26 614.4 846.588 626.788 855.607 638.778C861.109 646.088 866.8 653.648 871.867 661.424C876.513 668.545 882.534 679.585 884.832 691.725C887.067 703.553 885.226 713.555 879.344 721.453C873.605 729.154 863.742 734.503 851.565 736.504C847.866 737.116 844.061 737.409 840.266 737.39L840.273 737.369ZM1257.31 429.419C1245.54 429.36 1231.31 424.84 1226.89 416.316C1224.41 411.536 1225.26 406.078 1229.42 400.098C1232.92 395.064 1238.83 391.381 1246.07 389.746C1247.39 389.447 1248.74 389.213 1250.04 388.993C1252.44 388.58 1254.89 388.16 1257.2 387.336C1263.04 385.253 1267.62 380.749 1272.05 376.4C1276.69 371.847 1281.08 367.54 1286.93 365.458C1289.18 364.654 1291.57 364.255 1294.04 364.268C1298.78 364.291 1303.39 365.844 1307.02 368.633C1312.69 372.99 1315.84 380.118 1315.25 387.242C1314.48 396.562 1307.9 405.916 1296.21 414.303C1286.91 420.98 1274.88 426.495 1264.84 428.698C1262.64 429.183 1260.11 429.418 1257.32 429.405L1257.31 429.419ZM339.115 266.982C329.781 266.935 320.952 259.445 318.121 249.165C314.727 236.835 317.925 223.192 327.361 209.722C342.389 188.274 371.777 170.057 394.263 168.263C395 168.203 395.758 168.179 396.516 168.183C405.375 168.227 414.433 172.388 419.599 178.79C423.632 183.783 425.005 189.5 423.685 195.764C421.154 207.781 407.455 215.364 394.197 222.701C385.754 227.37 377.786 231.787 372.944 237.147C370.138 240.257 367.82 243.611 365.373 247.162C363.44 249.965 361.443 252.853 359.241 255.513C355.123 260.48 348.465 266.497 340.141 266.951C339.794 266.971 339.454 266.976 339.107 266.975L339.115 266.982ZM1038.58 16.8331C1038.45 16.8325 1038.31 16.8318 1038.19 16.8241C1035.3 16.6892 1032.67 15.5072 1029.6 13.7774C1026.31 11.9119 1022.16 9.27697 1019.36 5.45858C1016.46 1.5051 1015.5 -3.18262 1016.8 -7.08684C1016.94 -7.51828 1017.24 -8.4236 1018 -8.87323C1018.46 -9.14018 1019 -9.18706 1019.4 -9.22759C1020.31 -9.31513 1021.24 -9.36009 1022.16 -9.36258C1023.53 -9.36285 1024.84 -9.93018 1025.77 -10.9245C1031.71 -9.0174 1036.42 -4.43854 1041.12 0.494519C1045.75 5.35638 1047.34 9.48758 1045.84 12.7744C1044.71 15.2555 1041.85 16.8565 1038.57 16.8401L1038.58 16.8331Z"></path>
<path fill="#2EC08B" d="M1068.15 757.045C1062.14 757.015 1055.67 755.935 1047.79 753.642C1033.43 749.469 1019.86 743.117 1007.46 734.766C1002.86 731.669 997.719 727.789 994.487 722.559C991.01 716.916 990.426 710.367 992.958 705.456C995.239 701.039 1000.2 697.755 1006.23 696.673C1008.92 696.191 1011.76 695.964 1014.89 695.98C1021.85 696.014 1029.09 697.276 1036.11 698.494C1041.65 699.457 1046.86 700.369 1052 700.741C1053.35 700.84 1054.8 700.89 1056.57 700.899C1057.91 700.905 1059.27 700.891 1060.62 700.869C1062.05 700.848 1063.43 700.834 1064.8 700.841C1069.19 700.863 1074.29 701.136 1078.96 702.973C1091.84 708.06 1100.17 720.507 1099.22 733.24C1098.36 744.791 1090.62 753.091 1078 756.01C1074.92 756.725 1071.6 757.077 1068.15 757.059L1068.15 757.045ZM722.426 750.206C721.93 750.204 721.442 750.194 720.953 750.171C715.183 749.937 710.911 748.838 707.501 746.717C704.966 745.139 702.902 742.911 701.565 741.374C691.024 729.228 686.037 712.462 688.227 696.526C688.631 693.574 689.551 689.448 692.831 687.736C693.967 687.139 696.23 686.435 700.571 686.456C704.246 686.475 709.165 687.116 711.891 688.511C717.041 691.144 720.937 698.028 724.376 704.103C725.493 706.071 726.546 707.932 727.551 709.481C733.194 718.139 738.629 727.425 737.616 737.395C737.169 741.793 735.417 745.376 732.672 747.495C730.277 749.339 726.923 750.229 722.433 750.207L722.426 750.206ZM840.273 737.369C811.281 737.224 781.644 718.671 764.755 690.099C749.643 664.534 743.116 631.416 744.787 588.86C744.828 587.755 744.876 586.643 744.924 585.531L744.924 585.446C745.469 572.71 746.038 559.543 740.99 547.871C736.285 536.994 725.447 529.062 715.221 529.011C712.658 528.998 710.17 529.474 707.828 530.426C699.313 533.883 694.589 542.383 690.016 550.606C689.116 552.224 688.194 553.877 687.273 555.446C682.909 562.856 674.616 571.5 665.615 571.455C664.022 571.447 662.451 571.17 660.931 570.624C654.979 568.49 650.57 562.213 649.153 553.824C647.694 545.216 649.197 536.411 650.649 527.888C651.532 522.706 652.37 517.808 652.658 512.751C653.471 498.643 647.108 482.409 633.721 480.103C632.674 479.921 631.619 479.83 630.585 479.825C616.734 479.756 606.9 494.904 601.093 507.62C599.904 510.221 598.723 512.843 597.541 515.466C587.366 538.058 576.868 561.363 558.746 578.219C545.67 590.382 527.965 597.591 511.387 597.508C500.687 597.455 490.958 594.275 483.248 588.307C470.472 578.424 463.166 560.931 463.702 541.515C464.868 499.261 499.255 465.469 525.021 443.727C528.904 440.452 532.907 437.142 536.776 433.945C563.591 411.777 591.324 388.847 604.521 356.848C610.951 341.259 611.005 321.854 604.663 308.56C600.507 299.868 594.14 294.197 585.725 291.704C582.741 290.817 579.62 290.384 576.172 290.367C568.162 290.327 559.809 292.637 551.731 294.871C543.902 297.035 535.804 299.276 528.283 299.239C522.823 299.211 518.113 298.005 513.89 295.554C508.185 292.238 504 286.465 502.109 279.307C499.726 270.248 501.108 260.046 505.808 252.021C512.886 239.928 525.812 230.938 545.326 224.56C562.052 219.089 579.522 216.356 597.254 216.445C605.299 216.485 613.376 217.12 621.266 218.336L622.9 218.592C626.467 219.155 630.153 219.733 633.73 219.751C637.306 219.769 640.588 219.162 643.313 217.9C651.249 214.206 654.814 205.177 655.501 197.954C657.101 181.101 647.127 163.155 628.816 149.957C619.812 143.465 610.148 138.642 599.919 133.533C592.798 129.976 585.445 126.312 578.561 122.105C551.457 105.555 526.978 73.8143 533.377 40.1944C536.279 24.9415 545.131 12.035 558.972 2.87274C571.577 -5.47384 587.378 -10.0213 603.467 -9.94109C614.004 -9.88855 624.248 -7.78293 633.095 -3.84937C654.717 5.75888 673.424 26.107 684.414 51.9639C687.466 59.1488 689.382 66.8239 691.236 74.2507C693.721 84.2169 696.068 93.6229 700.953 102.475C705.016 109.842 715.085 122.963 727.577 134.389C737.566 143.521 752.199 154.426 765.173 154.484C767.609 154.496 769.912 154.111 772.019 153.342C776.539 151.693 779.259 147.186 781.119 143.448C796.127 113.335 790.05 77.8323 783.071 50.2738C779.73 37.0727 772.256 26.3447 765.02 15.9722C755.261 1.97397 746.042 -11.2493 747.287 -29.3372C747.669 -34.8896 748.529 -41.2615 752.024 -46.3733C756.369 -52.7349 767.978 -60.2859 776.102 -63.3413C783.183 -66.0124 790.894 -67.3412 799.017 -67.3007C820.283 -67.1947 841.437 -57.4542 857.067 -40.5858C873.627 -22.7067 878.513 3.04189 882.428 30.0821C888.782 73.9604 886.824 118.548 884.403 152.493C883.962 158.647 883.277 179.55 892.819 190.303C896.072 193.974 900.177 195.95 905.013 196.18C905.268 196.195 905.523 196.197 905.771 196.198C913.072 196.234 920.09 191.863 926.881 187.646C932.934 183.886 939.192 179.992 944.985 180.021C947.534 180.034 949.945 180.811 952.154 182.331C960.454 188.047 958.222 198.195 954.167 211.898C950.774 223.337 947.273 235.165 955.305 242.126C957.737 244.235 961.109 245.577 965.906 246.359C968.829 246.834 971.83 247.083 974.818 247.098C995.511 247.201 1018.14 236.184 1042.08 214.348C1046.26 210.529 1050.44 206.533 1054.48 202.671C1070.97 186.89 1088.02 170.575 1109.47 162.598C1118.42 159.27 1128 157.604 1137.95 157.653C1161.99 157.773 1185.5 168.078 1200.81 185.207C1223.17 210.214 1228.23 248.595 1213.12 278.544C1198.4 307.723 1167.32 328.496 1118.09 342.066C1109.64 344.397 1100.93 346.536 1092.51 348.605C1063.1 355.833 1032.68 363.312 1007.26 380.174C990.387 391.375 972.749 412.166 978.583 433.902C981.718 445.572 991.666 455.852 1005.87 462.086C1024.57 470.298 1045.66 470.517 1066.06 470.725C1067.78 470.74 1069.51 470.763 1071.22 470.779C1092.24 471.054 1116.26 472.385 1135.16 484.863C1144.36 490.938 1151.72 500.475 1155.35 511.028C1159.24 522.326 1158.39 533.388 1152.96 542.174C1144.57 555.749 1127.79 561.305 1111.33 565.828C1092.72 570.942 1071.62 576.738 1050.86 576.635C1045.88 576.61 1041 576.245 1036.38 575.542C1011.54 571.784 989.38 557.993 966.977 542.983L965.227 541.812C944.462 527.886 922.991 513.483 898.487 508.175C893.011 506.985 887.356 506.369 881.684 506.341C859.129 506.228 839.538 515.319 829.278 530.656C814.973 552.03 820.509 580.892 830.451 600.778C837.26 614.4 846.588 626.788 855.607 638.778C861.109 646.088 866.8 653.648 871.867 661.424C876.513 668.545 882.534 679.585 884.832 691.725C887.067 703.553 885.226 713.555 879.344 721.453C873.605 729.154 863.742 734.503 851.565 736.504C847.866 737.116 844.061 737.409 840.266 737.39L840.273 737.369ZM1257.31 429.419C1245.54 429.36 1231.31 424.84 1226.89 416.316C1224.41 411.536 1225.26 406.078 1229.42 400.098C1232.92 395.064 1238.83 391.381 1246.07 389.746C1247.39 389.447 1248.74 389.213 1250.04 388.993C1252.44 388.58 1254.89 388.16 1257.2 387.336C1263.04 385.253 1267.62 380.749 1272.05 376.4C1276.69 371.847 1281.08 367.54 1286.93 365.458C1289.18 364.654 1291.57 364.255 1294.04 364.268C1298.78 364.291 1303.39 365.844 1307.02 368.633C1312.69 372.99 1315.84 380.118 1315.25 387.242C1314.48 396.562 1307.9 405.916 1296.21 414.303C1286.91 420.98 1274.88 426.495 1264.84 428.698C1262.64 429.183 1260.11 429.418 1257.32 429.405L1257.31 429.419ZM339.115 266.982C329.781 266.935 320.952 259.445 318.121 249.165C314.727 236.835 317.925 223.192 327.361 209.722C342.389 188.274 371.777 170.057 394.263 168.263C395 168.203 395.758 168.179 396.516 168.183C405.375 168.227 414.433 172.388 419.599 178.79C423.632 183.783 425.005 189.5 423.685 195.764C421.154 207.781 407.455 215.364 394.197 222.701C385.754 227.37 377.786 231.787 372.944 237.147C370.138 240.257 367.82 243.611 365.373 247.162C363.44 249.965 361.443 252.853 359.241 255.513C355.123 260.48 348.465 266.497 340.141 266.951C339.794 266.971 339.454 266.976 339.107 266.975L339.115 266.982ZM1038.58 16.8331C1038.45 16.8325 1038.31 16.8318 1038.19 16.8241C1035.3 16.6892 1032.67 15.5072 1029.6 13.7774C1026.31 11.9119 1022.16 9.27697 1019.36 5.45858C1016.46 1.5051 1015.5 -3.18262 1016.8 -7.08684C1016.94 -7.51828 1017.24 -8.4236 1018 -8.87323C1018.46 -9.14018 1019 -9.18706 1019.4 -9.22759C1020.31 -9.31513 1021.24 -9.36009 1022.16 -9.36258C1023.53 -9.36285 1024.84 -9.93018 1025.77 -10.9245C1031.71 -9.0174 1036.42 -4.43854 1041.12 0.494519C1045.75 5.35638 1047.34 9.48758 1045.84 12.7744C1044.71 15.2555 1041.85 16.8565 1038.57 16.8401L1038.58 16.8331Z"></path>
<path fill-opacity="0.3" fill="url(#paint0_linear_12325_9840)" d="M1068.15 757.045C1062.14 757.015 1055.67 755.935 1047.79 753.642C1033.43 749.469 1019.86 743.117 1007.46 734.766C1002.86 731.669 997.719 727.789 994.487 722.559C991.01 716.916 990.426 710.367 992.958 705.456C995.239 701.039 1000.2 697.755 1006.23 696.673C1008.92 696.191 1011.76 695.964 1014.89 695.98C1021.85 696.014 1029.09 697.276 1036.11 698.494C1041.65 699.457 1046.86 700.369 1052 700.741C1053.35 700.84 1054.8 700.89 1056.57 700.899C1057.91 700.905 1059.27 700.891 1060.62 700.869C1062.05 700.848 1063.43 700.834 1064.8 700.841C1069.19 700.863 1074.29 701.136 1078.96 702.973C1091.84 708.06 1100.17 720.507 1099.22 733.24C1098.36 744.791 1090.62 753.091 1078 756.01C1074.92 756.725 1071.6 757.077 1068.15 757.059L1068.15 757.045ZM722.426 750.206C721.93 750.204 721.442 750.194 720.953 750.171C715.183 749.937 710.911 748.838 707.501 746.717C704.966 745.139 702.902 742.911 701.565 741.374C691.024 729.228 686.037 712.462 688.227 696.526C688.631 693.574 689.551 689.448 692.831 687.736C693.967 687.139 696.23 686.435 700.571 686.456C704.246 686.475 709.165 687.116 711.891 688.511C717.041 691.144 720.937 698.028 724.376 704.103C725.493 706.071 726.546 707.932 727.551 709.481C733.194 718.139 738.629 727.425 737.616 737.395C737.169 741.793 735.417 745.376 732.672 747.495C730.277 749.339 726.923 750.229 722.433 750.207L722.426 750.206ZM840.273 737.369C811.281 737.224 781.644 718.671 764.755 690.099C749.643 664.534 743.116 631.416 744.787 588.86C744.828 587.755 744.876 586.643 744.924 585.531L744.924 585.446C745.469 572.71 746.038 559.543 740.99 547.871C736.285 536.994 725.447 529.062 715.221 529.011C712.658 528.998 710.17 529.474 707.828 530.426C699.313 533.883 694.589 542.383 690.016 550.606C689.116 552.224 688.194 553.877 687.273 555.446C682.909 562.856 674.616 571.5 665.615 571.455C664.022 571.447 662.451 571.17 660.931 570.624C654.979 568.49 650.57 562.213 649.153 553.824C647.694 545.216 649.197 536.411 650.649 527.888C651.532 522.706 652.37 517.808 652.658 512.751C653.471 498.643 647.108 482.409 633.721 480.103C632.674 479.921 631.619 479.83 630.585 479.825C616.734 479.756 606.9 494.904 601.093 507.62C599.904 510.221 598.723 512.843 597.541 515.466C587.366 538.058 576.868 561.363 558.746 578.219C545.67 590.382 527.965 597.591 511.387 597.508C500.687 597.455 490.958 594.275 483.248 588.307C470.472 578.424 463.166 560.931 463.702 541.515C464.868 499.261 499.255 465.469 525.021 443.727C528.904 440.452 532.907 437.142 536.776 433.945C563.591 411.777 591.324 388.847 604.521 356.848C610.951 341.259 611.005 321.854 604.663 308.56C600.507 299.868 594.14 294.197 585.725 291.704C582.741 290.817 579.62 290.384 576.172 290.367C568.162 290.327 559.809 292.637 551.731 294.871C543.902 297.035 535.804 299.276 528.283 299.239C522.823 299.211 518.113 298.005 513.89 295.554C508.185 292.238 504 286.465 502.109 279.307C499.726 270.248 501.108 260.046 505.808 252.021C512.886 239.928 525.812 230.938 545.326 224.56C562.052 219.089 579.522 216.356 597.254 216.445C605.299 216.485 613.376 217.12 621.266 218.336L622.9 218.592C626.467 219.155 630.153 219.733 633.73 219.751C637.306 219.769 640.588 219.162 643.313 217.9C651.249 214.206 654.814 205.177 655.501 197.954C657.101 181.101 647.127 163.155 628.816 149.957C619.812 143.465 610.148 138.642 599.919 133.533C592.798 129.976 585.445 126.312 578.561 122.105C551.457 105.555 526.978 73.8143 533.377 40.1944C536.279 24.9415 545.131 12.035 558.972 2.87274C571.577 -5.47384 587.378 -10.0213 603.467 -9.94109C614.004 -9.88855 624.248 -7.78293 633.095 -3.84937C654.717 5.75888 673.424 26.107 684.414 51.9639C687.466 59.1488 689.382 66.8239 691.236 74.2507C693.721 84.2169 696.068 93.6229 700.953 102.475C705.016 109.842 715.085 122.963 727.577 134.389C737.566 143.521 752.199 154.426 765.173 154.484C767.609 154.496 769.912 154.111 772.019 153.342C776.539 151.693 779.259 147.186 781.119 143.448C796.127 113.335 790.05 77.8323 783.071 50.2738C779.73 37.0727 772.256 26.3447 765.02 15.9722C755.261 1.97397 746.042 -11.2493 747.287 -29.3372C747.669 -34.8896 748.529 -41.2615 752.024 -46.3733C756.369 -52.7349 767.978 -60.2859 776.102 -63.3413C783.183 -66.0124 790.894 -67.3412 799.017 -67.3007C820.283 -67.1947 841.437 -57.4542 857.067 -40.5858C873.627 -22.7067 878.513 3.04189 882.428 30.0821C888.782 73.9604 886.824 118.548 884.403 152.493C883.962 158.647 883.277 179.55 892.819 190.303C896.072 193.974 900.177 195.95 905.013 196.18C905.268 196.195 905.523 196.197 905.771 196.198C913.072 196.234 920.09 191.863 926.881 187.646C932.934 183.886 939.192 179.992 944.985 180.021C947.534 180.034 949.945 180.811 952.154 182.331C960.454 188.047 958.222 198.195 954.167 211.898C950.774 223.337 947.273 235.165 955.305 242.126C957.737 244.235 961.109 245.577 965.906 246.359C968.829 246.834 971.83 247.083 974.818 247.098C995.511 247.201 1018.14 236.184 1042.08 214.348C1046.26 210.529 1050.44 206.533 1054.48 202.671C1070.97 186.89 1088.02 170.575 1109.47 162.598C1118.42 159.27 1128 157.604 1137.95 157.653C1161.99 157.773 1185.5 168.078 1200.81 185.207C1223.17 210.214 1228.23 248.595 1213.12 278.544C1198.4 307.723 1167.32 328.496 1118.09 342.066C1109.64 344.397 1100.93 346.536 1092.51 348.605C1063.1 355.833 1032.68 363.312 1007.26 380.174C990.387 391.375 972.749 412.166 978.583 433.902C981.718 445.572 991.666 455.852 1005.87 462.086C1024.57 470.298 1045.66 470.517 1066.06 470.725C1067.78 470.74 1069.51 470.763 1071.22 470.779C1092.24 471.054 1116.26 472.385 1135.16 484.863C1144.36 490.938 1151.72 500.475 1155.35 511.028C1159.24 522.326 1158.39 533.388 1152.96 542.174C1144.57 555.749 1127.79 561.305 1111.33 565.828C1092.72 570.942 1071.62 576.738 1050.86 576.635C1045.88 576.61 1041 576.245 1036.38 575.542C1011.54 571.784 989.38 557.993 966.977 542.983L965.227 541.812C944.462 527.886 922.991 513.483 898.487 508.175C893.011 506.985 887.356 506.369 881.684 506.341C859.129 506.228 839.538 515.319 829.278 530.656C814.973 552.03 820.509 580.892 830.451 600.778C837.26 614.4 846.588 626.788 855.607 638.778C861.109 646.088 866.8 653.648 871.867 661.424C876.513 668.545 882.534 679.585 884.832 691.725C887.067 703.553 885.226 713.555 879.344 721.453C873.605 729.154 863.742 734.503 851.565 736.504C847.866 737.116 844.061 737.409 840.266 737.39L840.273 737.369ZM1257.31 429.419C1245.54 429.36 1231.31 424.84 1226.89 416.316C1224.41 411.536 1225.26 406.078 1229.42 400.098C1232.92 395.064 1238.83 391.381 1246.07 389.746C1247.39 389.447 1248.74 389.213 1250.04 388.993C1252.44 388.58 1254.89 388.16 1257.2 387.336C1263.04 385.253 1267.62 380.749 1272.05 376.4C1276.69 371.847 1281.08 367.54 1286.93 365.458C1289.18 364.654 1291.57 364.255 1294.04 364.268C1298.78 364.291 1303.39 365.844 1307.02 368.633C1312.69 372.99 1315.84 380.118 1315.25 387.242C1314.48 396.562 1307.9 405.916 1296.21 414.303C1286.91 420.98 1274.88 426.495 1264.84 428.698C1262.64 429.183 1260.11 429.418 1257.32 429.405L1257.31 429.419ZM339.115 266.982C329.781 266.935 320.952 259.445 318.121 249.165C314.727 236.835 317.925 223.192 327.361 209.722C342.389 188.274 371.777 170.057 394.263 168.263C395 168.203 395.758 168.179 396.516 168.183C405.375 168.227 414.433 172.388 419.599 178.79C423.632 183.783 425.005 189.5 423.685 195.764C421.154 207.781 407.455 215.364 394.197 222.701C385.754 227.37 377.786 231.787 372.944 237.147C370.138 240.257 367.82 243.611 365.373 247.162C363.44 249.965 361.443 252.853 359.241 255.513C355.123 260.48 348.465 266.497 340.141 266.951C339.794 266.971 339.454 266.976 339.107 266.975L339.115 266.982ZM1038.58 16.8331C1038.45 16.8325 1038.31 16.8318 1038.19 16.8241C1035.3 16.6892 1032.67 15.5072 1029.6 13.7774C1026.31 11.9119 1022.16 9.27697 1019.36 5.45858C1016.46 1.5051 1015.5 -3.18262 1016.8 -7.08684C1016.94 -7.51828 1017.24 -8.4236 1018 -8.87323C1018.46 -9.14018 1019 -9.18706 1019.4 -9.22759C1020.31 -9.31513 1021.24 -9.36009 1022.16 -9.36258C1023.53 -9.36285 1024.84 -9.93018 1025.77 -10.9245C1031.71 -9.0174 1036.42 -4.43854 1041.12 0.494519C1045.75 5.35638 1047.34 9.48758 1045.84 12.7744C1044.71 15.2555 1041.85 16.8565 1038.57 16.8401L1038.58 16.8331Z"></path>
<path fill="#FFFFC4" d="M746.693 391.652C747.453 390.527 748.631 389.756 749.958 389.499L872.788 365.708C875.022 365.276 876.662 367.759 875.386 369.648L855.808 398.602C855.048 399.727 853.869 400.498 852.543 400.755L729.713 424.546C727.479 424.978 725.827 422.497 727.103 420.608L746.681 391.655L746.693 391.652Z"></path>
<path fill="#FFFFC4" d="M729.146 301.047C729.906 299.922 731.084 299.15 732.411 298.893L855.241 275.103C857.475 274.67 859.115 277.154 857.839 279.043L838.261 307.996C837.501 309.121 836.323 309.893 834.996 310.15L712.166 333.94C709.932 334.373 708.28 331.892 709.556 330.003L729.134 301.049L729.146 301.047Z"></path>
<path fill="#FFFFC4" d="M841.753 325.938C840.628 325.178 839.246 324.902 837.92 325.159L715.09 348.949C712.856 349.382 712.25 352.301 714.139 353.577L743.111 373.127C744.236 373.887 745.618 374.163 746.944 373.906L869.774 350.115C872.009 349.683 872.603 346.766 870.714 345.49L841.741 325.94L841.753 325.938Z"></path>
<path stroke-width="10.71" stroke="#FFFFC4" d="M815.931 470.656C885.598 457.162 931.148 389.745 917.652 320.066C904.156 250.387 836.741 204.849 767.062 218.345C697.382 231.841 651.845 299.256 665.341 368.935C678.837 438.614 746.251 484.152 815.931 470.656Z"></path>
</g>
</g>
<defs>
<linearGradient gradientUnits="userSpaceOnUse" y2="573" x2="846.499" y1="247.5" x1="735" id="paint0_linear_12325_9840">
<stop stop-color="#FFFFC4"></stop>
<stop stop-color="#2EC08B" offset="1"></stop>
</linearGradient>
<clipPath id="clip0_12325_9840">
<rect fill="white" height="700" width="1632"></rect>
</clipPath>
<clipPath id="clip1_12325_9840">
<rect transform="translate(39 -296)" fill="white" height="1217" width="1505"></rect>
</clipPath>
</defs>
</svg>
